<?xml version="1.0" standalone="no"?>
<!DOCTYPE svg PUBLIC "-//W3C//DTD SVG 20010904//EN"
 "http://www.w3.org/TR/2001/REC-SVG-20010904/DTD/svg10.dtd">
<svg version="1.0" xmlns="http://www.w3.org/2000/svg"
 width="225.000000pt" height="225.000000pt" viewBox="0 0 225.000000 225.000000"
 preserveAspectRatio="xMidYMid meet">

<g transform="translate(0.000000,225.000000) scale(0.100000,-0.100000)"
fill="#000000" stroke="none">
<path d="M444 2230 c-111 -29 -190 -74 -270 -154 -81 -81 -125 -159 -155 -274
-18 -70 -19 -115 -19 -671 0 -487 3 -609 15 -666 48 -227 223 -402 450 -450
103 -22 1217 -22 1320 0 165 35 323 153 394 294 70 138 71 146 71 810 0 662
-1 676 -65 809 -49 103 -154 208 -257 257 -134 64 -146 65 -813 64 -553 0
-606 -2 -671 -19z m224 -623 c-77 -68 -149 -187 -183 -302 -25 -82 -25 -266
-1 -354 31 -113 102 -232 184 -309 l36 -33 -27 -27 c-34 -34 -42 -29 -123 67
-188 224 -228 545 -99 803 42 84 72 126 139 196 l50 52 31 -30 30 -30 -37 -33z
m1025 -3 c66 -77 129 -197 154 -294 24 -90 24 -282 0 -370 -26 -97 -89 -217
-154 -294 -78 -93 -86 -97 -120 -64 l-27 28 35 32 c220 203 272 558 118 813
-18 31 -60 85 -91 120 -32 35 -58 66 -58 69 0 3 10 17 22 31 19 22 24 24 42
12 12 -8 47 -45 79 -83z m-523 7 c0 -24 6 -31 44 -45 57 -22 108 -78 134 -147
11 -30 29 -108 41 -174 28 -159 36 -185 71 -234 l30 -41 -365 0 -365 0 30 42
c35 48 41 68 74 244 37 201 79 280 166 311 44 15 50 21 50 45 0 26 3 28 45 28
43 0 45 -1 45 -29z m-370 -66 l23 -24 -57 -62 c-67 -75 -101 -140 -121 -234
-18 -87 -18 -113 0 -200 20 -94 54 -159 121 -234 l57 -63 -27 -26 -27 -27 -60
63 c-104 110 -153 236 -153 392 0 103 15 162 66 264 27 53 130 176 148 176 3
0 17 -11 30 -25z m739 -27 c97 -99 154 -242 155 -388 0 -156 -49 -282 -153
-392 l-60 -63 -27 27 -27 26 57 63 c70 77 102 142 124 247 14 69 15 91 4 154
-17 98 -71 207 -137 275 l-53 55 21 24 c12 12 27 23 34 23 6 1 34 -22 62 -51z
m-326 -584 c9 -9 -11 -46 -37 -66 -42 -34 -107 -15 -134 38 -6 12 -8 24 -5 28
8 8 168 8 176 0z"/>
</g>
</svg>
