<?xml version="1.0" encoding="UTF-8"?>
<svg version="1.1" xmlns="http://www.w3.org/2000/svg" width="32" height="32">
<path d="M0 0 C10.56 0 21.12 0 32 0 C32 10.56 32 21.12 32 32 C21.44 32 10.88 32 0 32 C0 21.44 0 10.88 0 0 Z " fill="#B9B9BB" transform="translate(0,0)"/>
<path d="M0 0 C10.56 0 21.12 0 32 0 C32 10.56 32 21.12 32 32 C21.44 32 10.88 32 0 32 C0 21.44 0 10.88 0 0 Z M19 1 C19.99 1.33 20.98 1.66 22 2 C22 2.99 22 3.98 22 5 C23.65 5 25.3 5 27 5 C27 12.26 27 19.52 27 27 C25.35 27 23.7 27 22 27 C22 27.99 22 28.98 22 30 C20.35 29.67 18.7 29.34 17 29 C17.99 28.67 18.98 28.34 20 28 C20 24.37 20 20.74 20 17 C20.66 17 21.32 17 22 17 C22 16.34 22 15.68 22 15 C21.34 15 20.68 15 20 15 C20 11.7 20 8.4 20 5 C17.85423363 4.97314062 15.70837355 4.95366912 13.5625 4.9375 C11.77005859 4.92009766 11.77005859 4.92009766 9.94140625 4.90234375 C7.11126659 4.66098208 7.11126659 4.66098208 6 6 C5.90119203 7.47652664 5.86920755 8.95767236 5.8671875 10.4375 C5.86589844 11.33210937 5.86460938 12.22671875 5.86328125 13.1484375 C5.86714844 14.08945313 5.87101563 15.03046875 5.875 16 C5.87113281 16.94101562 5.86726562 17.88203125 5.86328125 18.8515625 C5.86457031 19.74617188 5.86585937 20.64078125 5.8671875 21.5625 C5.86831543 22.38878906 5.86944336 23.21507813 5.87060547 24.06640625 C5.78735193 26.00679039 5.78735193 26.00679039 7 27 C6.34 27.33 5.68 27.66 5 28 C5 20.08 5 12.16 5 4 C4.34 3.67 3.68 3.34 3 3 C7.95 3 12.9 3 18 3 C18 2.67 18 2.34 18 2 C12.72 2 7.44 2 2 2 C2 11.57 2 21.14 2 31 C11.24 31 20.48 31 30 31 C30 21.43 30 11.86 30 2 C24.555 1.505 24.555 1.505 19 1 Z " fill="#D2D2D2" transform="translate(0,0)"/>
<path d="M0 0 C1.8871875 0.0309375 1.8871875 0.0309375 3.8125 0.0625 C3.8125 3.0325 3.8125 6.0025 3.8125 9.0625 C2.8225 9.0625 1.8325 9.0625 0.8125 9.0625 C0.8125 9.7225 0.8125 10.3825 0.8125 11.0625 C1.8025 11.0625 2.7925 11.0625 3.8125 11.0625 C3.8125 14.3625 3.8125 17.6625 3.8125 21.0625 C0.1825 20.7325 -3.4475 20.4025 -7.1875 20.0625 C-7.1875 13.7925 -7.1875 7.5225 -7.1875 1.0625 C-4.43671116 0.14557039 -2.82801087 -0.04636083 0 0 Z " fill="#D9F1FE" transform="translate(15.1875,5.9375)"/>
<path d="M0 0 C10.56 0 21.12 0 32 0 C32 10.56 32 21.12 32 32 C21.44 32 10.88 32 0 32 C0 21.44 0 10.88 0 0 Z M9.25 1.4375 C5.66125 1.7159375 5.66125 1.7159375 2 2 C2 11.57 2 21.14 2 31 C11.24 31 20.48 31 30 31 C30 21.43 30 11.86 30 2 C19.54322549 1.11517356 19.54322549 1.11517356 9.25 1.4375 Z " fill="#F7F7F7" transform="translate(0,0)"/>
<path d="M0 0 C1.32 0.33 2.64 0.66 4 1 C4 5.29 4 9.58 4 14 C3.34 14 2.68 14 2 14 C2 10.7 2 7.4 2 4 C-4.435 4.495 -4.435 4.495 -11 5 C-11.08066072 8.29215238 -11.14033374 11.58234578 -11.1875 14.875 C-11.21263672 15.81214844 -11.23777344 16.74929687 -11.26367188 17.71484375 C-11.27333984 18.61074219 -11.28300781 19.50664062 -11.29296875 20.4296875 C-11.3086792 21.25710449 -11.32438965 22.08452148 -11.34057617 22.93701172 C-11.22818604 23.61779785 -11.1157959 24.29858398 -11 25 C-10.01 25.66 -9.02 26.32 -8 27 C-8.78375 26.979375 -9.5675 26.95875 -10.375 26.9375 C-12.98114961 26.81315937 -12.98114961 26.81315937 -15 28 C-15 19.42 -15 10.84 -15 2 C-10.05 2 -5.1 2 0 2 C0 1.34 0 0.68 0 0 Z " fill="#E6E6E7" transform="translate(18,1)"/>
<path d="M0 0 C1.79244141 0.01740234 1.79244141 0.01740234 3.62109375 0.03515625 C5.41740234 0.04869141 5.41740234 0.04869141 7.25 0.0625 C8.17683594 0.07410156 9.10367187 0.08570313 10.05859375 0.09765625 C10.05859375 3.39765625 10.05859375 6.69765625 10.05859375 10.09765625 C10.71859375 10.09765625 11.37859375 10.09765625 12.05859375 10.09765625 C12.05859375 10.75765625 12.05859375 11.41765625 12.05859375 12.09765625 C11.39859375 12.09765625 10.73859375 12.09765625 10.05859375 12.09765625 C10.05859375 15.72765625 10.05859375 19.35765625 10.05859375 23.09765625 C5.10859375 23.59265625 5.10859375 23.59265625 0.05859375 24.09765625 C0.05859375 23.43765625 0.05859375 22.77765625 0.05859375 22.09765625 C-1.26140625 21.76765625 -2.58140625 21.43765625 -3.94140625 21.09765625 C-3.97028771 17.78517438 -3.98816424 14.47272458 -4.00390625 11.16015625 C-4.01228516 10.21462891 -4.02066406 9.26910156 -4.02929688 8.29492188 C-4.03251953 7.39580078 -4.03574219 6.49667969 -4.0390625 5.5703125 C-4.04429932 4.73765869 -4.04953613 3.90500488 -4.05493164 3.04711914 C-3.86784489 -0.16554252 -3.26672345 0.10845695 0 0 Z M-1.94140625 2.09765625 C-1.94140625 8.36765625 -1.94140625 14.63765625 -1.94140625 21.09765625 C1.68859375 21.42765625 5.31859375 21.75765625 9.05859375 22.09765625 C9.05859375 18.79765625 9.05859375 15.49765625 9.05859375 12.09765625 C8.06859375 12.09765625 7.07859375 12.09765625 6.05859375 12.09765625 C6.05859375 11.43765625 6.05859375 10.77765625 6.05859375 10.09765625 C7.04859375 10.09765625 8.03859375 10.09765625 9.05859375 10.09765625 C9.05859375 7.12765625 9.05859375 4.15765625 9.05859375 1.09765625 C7.17140625 1.06671875 7.17140625 1.06671875 5.24609375 1.03515625 C4.53839844 1.02355469 3.83070312 1.01195312 3.1015625 1 C0.85553914 1.01502408 0.85553914 1.01502408 -1.94140625 2.09765625 Z " fill="#B8D4E4" transform="translate(9.94140625,4.90234375)"/>
<path d="M0 0 C0.99 0 1.98 0 3 0 C3 6.93 3 13.86 3 21 C2.01 21 1.02 21 0 21 C0 14.07 0 7.14 0 0 Z " fill="#FFFFFF" transform="translate(23,6)"/>
<path d="M0 0 C0.66 0 1.32 0 2 0 C2 3.96 2 7.92 2 12 C-1.63 11.67 -5.26 11.34 -9 11 C-9 10.67 -9 10.34 -9 10 C-6.03 10 -3.06 10 0 10 C0 6.7 0 3.4 0 0 Z " fill="#EEEDEE" transform="translate(20,18)"/>
<path d="M0 0 C0.33 0 0.66 0 1 0 C1 3.3 1 6.6 1 10 C1.66 10 2.32 10 3 10 C3 10.66 3 11.32 3 12 C2.34 12 1.68 12 1 12 C1 15.63 1 19.26 1 23 C0.01 22.67 -0.98 22.34 -2 22 C-1.34 22 -0.68 22 0 22 C0 18.7 0 15.4 0 12 C-0.99 12 -1.98 12 -3 12 C-3 11.34 -3 10.68 -3 10 C-2.01 10 -1.02 10 0 10 C0 6.7 0 3.4 0 0 Z " fill="#A7BDCC" transform="translate(19,5)"/>
</svg>
