<?xml version="1.0" encoding="UTF-8"?>
<svg version="1.1" xmlns="http://www.w3.org/2000/svg" width="32" height="32">
<path d="M0 0 C10.56 0 21.12 0 32 0 C32 10.56 32 21.12 32 32 C21.44 32 10.88 32 0 32 C0 21.44 0 10.88 0 0 Z " fill="#D2D7DB" transform="translate(0,0)"/>
<path d="M0 0 C5.94 0 11.88 0 18 0 C18 2.64 18 5.28 18 8 C16.68 8 15.36 8 14 8 C14 8.66 14 9.32 14 10 C15.32 10 16.64 10 18 10 C18 12.64 18 15.28 18 18 C12.06 18 6.12 18 0 18 C0 12.06 0 6.12 0 0 Z " fill="#D9F1FE" transform="translate(7,7)"/>
<path d="M0 0 C7.92 0 15.84 0 24 0 C24 3.3 24 6.6 24 10 C23.34 10 22.68 10 22 10 C21.67 7.36 21.34 4.72 21 2 C14.73 1.67 8.46 1.34 2 1 C2 7.93 2 14.86 2 22 C8.6 22 15.2 22 22 22 C22 19.36 22 16.72 22 14 C22.66 14 23.32 14 24 14 C24 17.3 24 20.6 24 24 C16.08 24 8.16 24 0 24 C0 16.08 0 8.16 0 0 Z " fill="#F2F0F1" transform="translate(4,4)"/>
<path d="M0 0 C0.66 0 1.32 0 2 0 C2 3.3 2 6.6 2 10 C-4.93 10 -11.86 10 -19 10 C-19.33 9.34 -19.66 8.68 -20 8 C-13.4 8 -6.8 8 0 8 C0 5.36 0 2.72 0 0 Z " fill="#E8EAEB" transform="translate(26,18)"/>
<path d="M0 0 C0.33 0 0.66 0 1 0 C1 2.64 1 5.28 1 8 C1.99 8 2.98 8 4 8 C4 12.95 4 17.9 4 23 C3.67 23 3.34 23 3 23 C3 19.37 3 15.74 3 12 C2.34 12 1.68 12 1 12 C1 14.64 1 17.28 1 20 C0.67 20 0.34 20 0 20 C0 17.03 0 14.06 0 11 C-1.32 11 -2.64 11 -4 11 C-4 10.34 -4 9.68 -4 9 C-2.68 9 -1.36 9 0 9 C0 6.03 0 3.06 0 0 Z " fill="#B2BDC5" transform="translate(25,6)"/>
<path d="M0 0 C0.66 0 1.32 0 2 0 C2 3.3 2 6.6 2 10 C1.34 10 0.68 10 0 10 C-0.19412181 8.52168779 -0.38012131 7.04230684 -0.5625 5.5625 C-0.66691406 4.73878906 -0.77132813 3.91507812 -0.87890625 3.06640625 C-0.91886719 2.38449219 -0.95882813 1.70257812 -1 1 C-0.67 0.67 -0.34 0.34 0 0 Z " fill="#EAE9EA" transform="translate(26,4)"/>
</svg>
