<svg id="svg" version="1.1" xmlns="http://www.w3.org/2000/svg" xmlns:xlink="http://www.w3.org/1999/xlink" width="400" height="400" viewBox="0, 0, 400,400"><g id="svgg"><path id="path0" d="M186.400 151.496 C 185.290 151.593,184.255 151.976,183.700 152.496 L 182.800 153.339 182.800 175.458 C 182.800 198.898,183.067 203.300,184.804 208.446 C 186.299 212.878,187.234 218.581,187.599 225.498 C 187.799 229.292,188.060 232.982,188.178 233.698 C 188.296 234.414,188.584 238.600,188.817 243.000 C 189.345 252.974,190.206 261.446,190.964 264.140 C 191.283 265.273,191.760 267.460,192.024 269.000 C 192.786 273.445,194.212 274.400,200.091 274.400 C 205.915 274.400,206.393 273.946,207.527 267.338 C 208.011 264.512,208.406 261.886,208.404 261.502 C 208.402 261.117,208.750 259.767,209.177 258.502 C 210.365 254.983,211.159 248.672,211.605 239.200 C 212.313 224.145,213.592 214.323,215.609 208.446 C 217.368 203.322,218.149 154.182,216.495 152.686 C 215.079 151.405,196.078 150.654,186.400 151.496 M211.713 153.059 L 213.225 153.309 213.082 175.954 C 212.950 196.846,212.873 198.987,212.087 203.600 C 211.218 208.696,210.655 217.469,210.052 235.304 C 209.782 243.275,209.597 245.344,209.105 245.904 C 207.047 248.246,205.833 252.916,205.180 261.010 C 204.932 264.085,204.610 267.950,204.465 269.600 L 204.200 272.600 200.800 272.718 C 195.440 272.904,195.815 273.289,195.261 267.034 C 194.558 259.096,193.478 253.645,192.067 250.920 C 190.567 248.021,190.484 247.110,190.007 228.400 C 189.527 209.532,188.736 202.220,186.753 198.316 C 186.043 196.916,186.000 195.592,186.000 175.040 L 186.000 153.248 187.500 153.091 C 190.071 152.822,210.119 152.795,211.713 153.059 M183.270 295.726 C 182.407 296.644,182.400 296.774,182.400 312.656 L 182.400 328.661 183.326 329.530 C 184.244 330.393,184.374 330.400,200.256 330.400 L 216.261 330.400 217.130 329.474 C 217.993 328.556,218.000 328.426,218.000 312.544 L 218.000 296.539 217.074 295.670 C 216.156 294.807,216.026 294.800,200.144 294.800 L 184.139 294.800 183.270 295.726 M216.200 312.600 L 216.200 328.600 200.200 328.600 L 184.200 328.600 184.095 313.001 C 184.038 304.421,184.078 297.174,184.184 296.896 C 184.337 296.498,187.759 296.413,200.289 296.495 L 216.200 296.600 216.200 312.600 " stroke="none" fill="#fce4cc" fill-rule="evenodd"></path><path id="path1" d="M187.500 153.091 L 186.000 153.248 186.000 175.040 C 186.000 195.592,186.043 196.916,186.753 198.316 C 188.736 202.220,189.527 209.532,190.007 228.400 C 190.484 247.110,190.567 248.021,192.067 250.920 C 193.478 253.645,194.558 259.096,195.261 267.034 C 195.815 273.289,195.440 272.904,200.800 272.718 L 204.200 272.600 204.465 269.600 C 204.610 267.950,204.932 264.085,205.180 261.010 C 205.833 252.916,207.047 248.246,209.105 245.904 C 209.597 245.344,209.782 243.275,210.052 235.304 C 210.655 217.469,211.218 208.696,212.087 203.600 C 212.873 198.987,212.950 196.846,213.082 175.954 L 213.225 153.309 211.713 153.059 C 210.119 152.795,190.071 152.822,187.500 153.091 M184.184 296.896 C 184.078 297.174,184.038 304.421,184.095 313.001 L 184.200 328.600 200.200 328.600 L 216.200 328.600 216.200 312.600 L 216.200 296.600 200.289 296.495 C 187.759 296.413,184.337 296.498,184.184 296.896 " stroke="none" fill="#fcfcfc" fill-rule="evenodd"></path><path id="path2" d="M192.331 63.132 C 189.996 63.819,188.253 65.049,187.133 66.800 C 186.782 67.350,185.683 68.653,184.692 69.695 C 183.700 70.737,182.770 72.064,182.625 72.644 C 182.172 74.446,180.002 78.585,178.862 79.821 C 176.677 82.190,174.800 86.193,174.800 88.486 C 174.800 88.825,174.532 89.324,174.204 89.596 C 173.877 89.868,173.703 90.244,173.819 90.430 C 173.934 90.617,173.370 91.187,172.564 91.697 C 171.357 92.461,170.844 93.253,169.639 96.209 C 168.347 99.382,167.942 99.972,166.122 101.330 C 164.340 102.659,163.999 103.141,163.578 104.932 C 162.699 108.675,161.586 111.119,160.057 112.671 C 159.004 113.739,158.215 115.155,157.438 117.366 C 156.182 120.944,155.185 122.629,152.833 125.151 C 151.935 126.113,151.200 127.150,151.200 127.455 C 151.200 128.573,149.532 131.509,147.978 133.126 C 146.466 134.701,144.000 138.855,144.000 139.829 C 144.000 140.077,143.460 141.025,142.800 141.937 C 142.140 142.848,141.600 143.666,141.600 143.754 C 141.600 143.843,141.081 144.471,140.447 145.150 C 139.591 146.066,139.060 147.341,138.388 150.092 C 137.512 153.679,137.401 153.880,135.018 156.236 C 133.087 158.144,132.354 159.227,131.630 161.236 C 131.122 162.646,130.457 164.085,130.152 164.432 C 129.848 164.780,129.695 165.161,129.813 165.279 C 129.930 165.397,129.403 166.042,128.639 166.712 C 127.041 168.116,125.942 170.099,125.034 173.224 C 124.603 174.708,123.826 176.043,122.645 177.329 C 121.513 178.562,120.368 180.491,119.403 182.792 C 118.380 185.233,117.348 186.937,116.114 188.225 C 114.615 189.790,113.161 192.173,113.201 193.001 C 113.227 193.551,110.936 197.587,109.795 199.000 C 109.084 199.880,107.920 202.220,107.208 204.200 C 106.496 206.180,105.666 207.998,105.363 208.240 C 105.060 208.481,104.906 208.772,105.020 208.886 C 105.134 209.000,104.603 209.642,103.839 210.312 C 102.298 211.665,101.149 213.686,100.378 216.400 C 99.846 218.270,98.533 220.346,96.891 221.911 C 96.365 222.412,95.138 224.482,94.165 226.511 C 92.192 230.621,91.847 231.195,90.375 232.804 C 89.811 233.421,89.118 234.707,88.836 235.662 C 88.065 238.277,86.610 240.990,85.298 242.263 C 83.581 243.928,82.785 245.316,81.704 248.529 C 81.173 250.108,80.482 251.685,80.169 252.032 C 79.855 252.380,79.698 252.765,79.820 252.886 C 79.942 253.008,79.377 253.656,78.565 254.325 C 77.092 255.539,74.834 259.782,74.811 261.378 C 74.799 262.209,72.899 265.200,72.384 265.200 C 71.930 265.200,70.236 268.230,69.033 271.193 C 68.314 272.963,67.379 274.359,66.083 275.595 C 64.803 276.816,64.011 277.991,63.651 279.203 C 62.869 281.834,61.303 284.879,60.031 286.239 C 59.419 286.894,58.603 288.143,58.217 289.015 C 56.549 292.789,55.819 294.028,54.377 295.528 C 52.833 297.134,51.672 299.124,49.878 303.237 C 49.326 304.502,48.109 306.241,47.077 307.237 C 45.457 308.803,45.157 309.380,44.399 312.400 C 43.448 316.184,43.246 316.560,40.662 319.380 C 39.663 320.468,38.733 321.812,38.594 322.366 C 38.221 323.851,36.864 326.713,36.395 327.003 C 36.170 327.142,36.079 327.405,36.192 327.587 C 36.305 327.770,35.780 328.462,35.025 329.125 C 33.497 330.466,32.347 332.493,31.578 335.200 C 31.020 337.161,29.690 339.215,27.927 340.835 C 26.289 342.341,25.657 344.944,25.657 350.189 C 25.657 357.011,25.853 357.457,31.042 362.485 C 32.339 363.742,33.771 365.204,34.225 365.735 C 36.518 368.416,21.925 368.200,200.600 368.200 L 361.400 368.200 363.664 367.285 C 364.909 366.781,366.197 365.959,366.525 365.458 C 366.853 364.957,368.155 363.569,369.418 362.374 C 374.619 357.448,374.800 357.039,374.800 350.200 C 374.800 344.971,374.291 342.825,372.645 341.117 C 370.555 338.947,369.363 337.103,368.822 335.200 C 368.053 332.493,366.903 330.466,365.375 329.125 C 364.620 328.462,364.095 327.770,364.208 327.587 C 364.321 327.405,364.235 327.145,364.017 327.011 C 363.549 326.721,362.657 324.879,361.813 322.457 C 361.479 321.499,360.596 319.879,359.851 318.857 C 358.321 316.758,355.839 312.000,356.274 312.000 C 356.431 312.000,356.344 311.784,356.080 311.520 C 355.816 311.256,355.600 310.704,355.600 310.294 C 355.600 309.884,354.633 308.565,353.451 307.364 C 351.808 305.695,350.948 304.338,349.803 301.607 C 348.847 299.328,347.687 297.362,346.598 296.175 C 345.658 295.152,344.720 293.929,344.512 293.458 C 343.013 290.051,341.255 286.907,340.463 286.217 C 339.049 284.983,337.579 281.468,337.111 278.200 C 337.079 277.980,336.547 277.260,335.929 276.600 C 335.310 275.940,334.803 275.265,334.802 275.100 C 334.801 274.935,334.561 274.800,334.270 274.800 C 333.392 274.800,332.112 273.132,331.198 270.800 C 330.248 268.373,329.206 266.523,327.592 264.400 C 327.007 263.630,326.016 261.560,325.391 259.800 C 324.453 257.163,323.897 256.266,322.227 254.702 C 321.112 253.659,320.363 252.804,320.562 252.802 C 320.761 252.801,320.640 252.485,320.293 252.100 C 319.945 251.715,319.227 250.108,318.696 248.529 C 317.615 245.316,316.819 243.928,315.102 242.263 C 313.784 240.984,312.335 238.275,311.553 235.629 C 311.266 234.654,310.462 233.288,309.767 232.593 C 308.733 231.560,306.000 226.681,306.000 225.869 C 306.000 225.456,303.479 221.600,303.208 221.600 C 302.647 221.600,300.529 218.134,300.029 216.400 C 299.244 213.673,298.098 211.661,296.561 210.312 C 295.797 209.642,295.266 209.000,295.380 208.886 C 295.494 208.772,295.337 208.481,295.031 208.240 C 294.725 207.998,294.024 206.530,293.473 204.977 C 292.375 201.877,291.120 199.435,289.991 198.200 C 289.157 197.288,287.554 194.145,286.746 191.840 C 286.446 190.982,285.361 189.386,284.335 188.293 C 283.055 186.928,282.002 185.189,280.978 182.748 C 280.158 180.792,278.927 178.589,278.244 177.852 C 275.650 175.056,275.203 174.358,274.949 172.703 C 274.591 170.373,273.417 168.166,271.761 166.712 C 270.997 166.042,270.470 165.397,270.587 165.279 C 270.705 165.161,270.552 164.780,270.248 164.432 C 269.943 164.085,269.281 162.630,268.776 161.200 C 268.269 159.763,267.011 157.504,265.961 156.148 C 264.404 154.137,261.897 149.910,262.020 149.503 C 262.250 148.748,260.301 145.153,259.310 144.504 C 258.810 144.176,258.400 143.731,258.400 143.516 C 258.400 143.300,258.071 142.646,257.668 142.062 C 257.266 141.478,256.419 139.762,255.787 138.249 C 255.154 136.736,254.172 135.026,253.603 134.449 C 252.034 132.857,250.400 130.588,250.400 130.001 C 250.400 128.783,248.361 125.313,247.016 124.240 C 245.141 122.745,242.661 117.184,243.119 115.500 C 243.163 115.335,243.059 115.200,242.886 115.200 C 242.714 115.200,242.230 114.620,241.811 113.911 C 241.392 113.202,240.545 112.197,239.928 111.678 C 239.311 111.159,238.095 109.259,237.227 107.456 C 236.358 105.652,235.042 103.372,234.302 102.389 C 233.562 101.405,232.625 99.700,232.220 98.600 C 230.772 94.667,229.627 92.827,227.979 91.787 C 227.094 91.228,226.470 90.610,226.592 90.413 C 226.713 90.216,226.627 89.941,226.400 89.800 C 225.802 89.430,224.972 87.269,224.651 85.242 C 224.368 83.458,223.501 81.949,221.538 79.821 C 220.399 78.587,218.228 74.447,217.776 72.649 C 217.631 72.071,216.542 70.564,215.356 69.300 C 214.170 68.035,213.200 66.865,213.200 66.700 C 213.200 63.300,199.636 60.982,192.331 63.132 M220.227 143.633 C 221.824 143.924,222.960 144.406,223.700 145.107 L 224.800 146.150 224.800 175.391 C 224.800 200.092,224.707 204.990,224.200 206.935 C 223.870 208.202,223.600 210.648,223.600 212.369 C 223.600 214.092,223.337 216.244,223.016 217.155 C 222.406 218.884,222.404 218.893,222.394 219.700 C 222.390 220.043,222.272 220.018,222.020 219.619 C 221.818 219.300,221.734 218.907,221.833 218.747 C 221.932 218.586,221.815 218.333,221.572 218.183 C 221.292 218.010,221.132 216.215,221.132 213.255 C 221.133 210.695,221.013 195.850,220.867 180.267 L 220.600 151.934 219.294 150.767 C 218.575 150.125,217.786 149.600,217.540 149.600 C 217.294 149.600,217.570 149.976,218.154 150.435 C 220.451 152.242,220.400 151.689,220.396 175.080 C 220.391 205.838,219.635 215.581,216.810 221.319 C 215.410 224.163,215.467 224.793,217.124 224.813 C 219.134 224.837,219.443 226.359,219.367 235.834 C 219.286 245.810,218.711 253.738,217.837 256.920 C 217.487 258.195,217.200 260.648,217.200 262.369 C 217.200 264.092,216.937 266.244,216.616 267.155 C 216.006 268.884,216.004 268.893,215.994 269.700 C 215.990 270.043,215.872 270.018,215.620 269.619 C 215.418 269.300,215.334 268.907,215.433 268.747 C 215.532 268.586,215.415 268.333,215.172 268.183 C 214.889 268.008,214.743 266.247,214.763 263.255 C 214.801 257.746,214.178 242.223,214.072 246.000 C 213.696 259.290,211.900 270.043,209.629 272.600 C 209.239 273.040,208.789 273.670,208.630 274.000 C 208.430 274.415,208.510 274.394,208.891 273.932 C 209.509 273.182,212.793 273.604,213.519 274.527 C 215.128 276.574,213.973 279.966,211.172 281.414 C 209.299 282.383,190.764 282.243,188.600 281.244 C 186.672 280.354,185.095 278.729,184.969 277.500 C 184.918 277.005,184.499 275.537,184.038 274.238 C 183.459 272.605,183.196 270.876,183.186 268.638 C 183.178 266.857,182.894 264.320,182.555 263.000 C 179.932 252.785,180.421 231.351,183.286 230.914 C 184.664 230.704,185.000 230.157,184.469 228.992 C 184.211 228.426,184.000 226.742,184.000 225.250 C 184.000 223.310,183.726 221.863,183.039 220.169 C 180.679 214.351,180.002 204.487,180.001 175.880 C 180.000 151.399,179.975 151.703,182.087 150.224 C 183.087 149.523,182.755 149.382,181.583 150.009 C 179.803 150.962,179.813 150.816,179.535 180.400 C 179.389 195.910,179.269 210.695,179.269 213.255 C 179.269 216.214,179.108 218.010,178.828 218.183 C 178.585 218.333,178.468 218.586,178.567 218.747 C 178.666 218.907,178.582 219.300,178.380 219.619 C 178.128 220.018,178.010 220.043,178.006 219.700 C 177.996 218.893,177.994 218.884,177.384 217.155 C 177.063 216.245,176.800 214.105,176.800 212.400 C 176.800 210.634,176.459 207.946,176.006 206.151 C 175.252 203.157,175.212 201.591,175.206 174.778 L 175.200 146.557 176.500 145.302 C 177.386 144.447,178.437 143.926,179.800 143.668 C 182.669 143.125,217.274 143.094,220.227 143.633 M185.700 149.076 C 186.085 149.176,186.715 149.176,187.100 149.076 C 187.485 148.975,187.170 148.893,186.400 148.893 C 185.630 148.893,185.315 148.975,185.700 149.076 M214.260 234.548 C 214.096 237.159,214.042 239.376,214.141 239.474 C 214.388 239.722,214.924 231.521,214.722 230.571 C 214.632 230.147,214.424 231.936,214.260 234.548 M185.983 256.633 C 185.973 259.695,185.818 262.959,185.639 263.886 C 185.151 266.405,185.718 273.976,186.427 274.425 C 186.742 274.625,187.861 274.791,188.914 274.794 L 190.828 274.800 189.476 273.613 C 187.851 272.186,187.463 270.037,186.765 258.600 C 186.231 249.840,186.006 249.274,185.983 256.633 M340.800 262.525 C 340.800 262.594,341.385 263.179,342.100 263.825 L 343.400 265.000 342.225 263.700 C 341.130 262.488,340.800 262.216,340.800 262.525 M223.408 287.676 C 225.570 288.662,225.600 289.002,225.600 312.800 C 225.600 336.598,225.570 336.938,223.408 337.924 C 221.676 338.713,178.335 338.594,176.792 337.796 C 174.777 336.754,174.800 337.045,174.800 312.800 C 174.800 288.709,174.788 288.867,176.710 287.824 C 178.162 287.036,221.701 286.899,223.408 287.676 M12.667 346.667 C 12.299 347.035,12.329 353.509,12.700 353.738 C 12.865 353.840,13.000 352.231,13.000 350.162 C 13.000 348.093,12.985 346.400,12.967 346.400 C 12.948 346.400,12.813 346.520,12.667 346.667 " stroke="none" fill="#fca404" fill-rule="evenodd"></path><path id="path3" d="M186.917 47.643 C 185.533 48.043,184.807 49.642,184.802 52.300 C 184.800 53.444,184.668 53.603,183.700 53.629 C 183.095 53.645,181.700 53.690,180.600 53.729 L 178.600 53.800 178.529 55.800 C 178.490 56.900,178.445 58.205,178.429 58.700 C 178.402 59.535,178.218 59.600,175.880 59.600 C 172.666 59.600,172.400 59.893,172.400 63.435 L 172.400 66.309 170.550 66.587 C 167.613 67.027,165.583 70.631,166.011 74.644 C 166.056 75.060,166.071 76.054,166.046 76.853 L 166.000 78.307 163.401 78.472 C 159.597 78.714,159.670 78.510,159.612 89.100 L 159.600 91.200 157.233 91.200 C 153.637 91.200,153.600 91.235,153.600 94.592 L 153.600 97.498 151.900 97.769 C 148.872 98.252,148.449 98.774,147.440 103.271 C 147.258 104.082,147.369 104.386,147.900 104.524 C 148.542 104.692,148.539 104.711,147.870 104.754 C 147.273 104.792,147.152 105.111,147.207 106.500 C 147.328 109.553,147.308 109.600,145.900 109.602 C 141.766 109.609,140.998 110.859,141.228 117.200 C 141.264 118.190,141.272 119.744,141.247 120.653 L 141.200 122.307 138.601 122.472 C 134.807 122.714,134.871 122.539,134.812 132.700 L 134.800 134.800 132.049 134.800 C 128.660 134.800,128.472 135.002,128.319 138.811 L 128.200 141.787 126.584 141.669 C 123.810 141.466,122.420 144.472,122.406 150.700 L 122.400 153.600 121.100 153.602 C 116.687 153.610,116.006 154.691,116.002 161.700 L 116.000 166.000 113.429 166.000 C 109.658 166.000,109.600 166.103,109.600 172.829 L 109.600 178.400 107.080 178.400 C 103.866 178.400,103.600 178.693,103.600 182.235 L 103.600 185.109 101.817 185.377 C 98.504 185.873,97.220 188.414,97.206 194.500 L 97.200 197.200 95.900 197.202 C 91.591 197.210,91.200 197.913,91.200 205.656 L 91.200 209.600 88.629 209.600 C 85.221 209.600,84.800 210.037,84.800 213.577 L 84.800 216.298 83.100 216.569 C 80.072 217.052,79.649 217.574,78.640 222.071 C 78.458 222.882,78.569 223.186,79.100 223.324 C 79.742 223.492,79.739 223.511,79.069 223.554 C 78.487 223.591,78.353 223.903,78.408 225.100 C 78.572 228.652,78.557 228.686,76.611 228.977 C 73.939 229.378,72.060 233.077,72.409 237.248 C 72.453 237.772,72.469 238.851,72.444 239.646 L 72.400 241.093 69.586 241.294 C 65.853 241.561,66.070 240.941,66.012 251.500 L 66.000 253.600 63.280 253.600 C 59.879 253.600,59.600 253.876,59.600 257.235 L 59.600 259.911 58.100 260.185 C 55.253 260.705,54.833 261.246,53.840 265.671 C 53.658 266.482,53.769 266.786,54.300 266.924 C 54.942 267.092,54.939 267.111,54.270 267.154 C 53.673 267.192,53.552 267.511,53.607 268.900 C 53.743 272.330,53.716 272.400,52.300 272.402 C 48.168 272.409,47.103 273.724,47.221 278.673 C 47.257 280.173,47.267 282.144,47.243 283.053 L 47.200 284.707 44.615 284.871 C 41.112 285.094,41.247 284.690,41.208 295.100 L 41.200 297.200 38.480 297.200 C 35.045 297.200,34.800 297.455,34.800 301.035 L 34.800 303.909 33.017 304.177 C 29.709 304.673,28.414 307.177,28.405 313.100 L 28.400 316.000 27.060 316.000 C 23.103 316.000,22.406 317.213,22.402 324.100 L 22.400 328.400 19.900 328.406 C 16.121 328.415,16.230 328.217,16.000 335.477 L 15.800 341.786 14.112 341.663 C 10.693 341.415,9.800 343.627,10.057 351.706 C 10.228 357.092,10.862 358.599,12.836 358.309 C 13.476 358.215,14.000 358.287,14.000 358.469 C 14.000 358.651,14.450 358.800,15.000 358.800 C 15.949 358.800,16.001 358.916,16.012 361.100 C 16.066 371.892,15.995 371.685,19.756 371.925 L 22.310 372.087 22.481 374.450 C 22.575 375.749,22.874 377.034,23.146 377.306 C 23.871 378.031,376.529 378.031,377.254 377.306 C 377.526 377.034,377.825 375.749,377.919 374.450 L 378.090 372.087 380.644 371.925 C 384.484 371.680,384.185 373.445,384.313 350.222 C 384.444 326.558,384.760 328.400,380.571 328.400 L 378.000 328.400 377.998 324.100 C 377.994 317.171,377.293 316.011,373.100 316.002 C 372.002 316.000,372.000 315.995,371.995 313.100 C 371.986 307.177,370.691 304.673,367.383 304.177 L 365.600 303.909 365.600 301.035 C 365.600 297.460,365.352 297.200,361.950 297.200 L 359.260 297.200 359.130 291.567 C 358.979 285.018,358.856 284.800,355.324 284.800 L 353.200 284.800 353.157 283.100 C 353.133 282.165,353.143 280.173,353.179 278.673 C 353.297 273.724,352.232 272.409,348.100 272.402 C 346.686 272.400,346.658 272.327,346.791 268.935 C 346.842 267.627,346.700 267.229,346.128 267.081 C 345.454 266.907,345.452 266.889,346.108 266.846 C 346.667 266.810,346.763 266.570,346.568 265.700 C 345.562 261.237,345.151 260.706,342.300 260.185 L 340.800 259.911 340.800 257.235 C 340.800 253.876,340.521 253.600,337.120 253.600 L 334.400 253.600 334.388 251.500 C 334.330 240.941,334.547 241.561,330.814 241.294 L 328.000 241.093 327.957 239.446 C 327.933 238.541,327.942 236.593,327.977 235.118 C 328.102 229.844,327.060 228.410,323.100 228.402 C 322.017 228.400,322.000 228.362,322.000 225.880 C 322.000 222.692,321.691 222.400,318.320 222.400 L 315.600 222.400 315.572 219.700 C 315.556 218.215,315.567 215.629,315.596 213.953 C 315.663 210.027,315.288 209.600,311.771 209.600 L 309.200 209.600 309.177 205.100 C 309.143 198.271,308.615 197.344,304.700 197.240 L 303.200 197.200 303.194 194.500 C 303.180 188.414,301.896 185.873,298.583 185.377 L 296.800 185.109 296.800 182.235 C 296.800 178.693,296.534 178.400,293.320 178.400 L 290.800 178.400 290.800 172.829 C 290.800 166.103,290.742 166.000,286.971 166.000 L 284.400 166.000 284.398 161.700 C 284.394 154.691,283.713 153.610,279.300 153.602 L 278.000 153.600 277.994 150.700 C 277.980 144.456,276.513 141.424,273.626 141.676 L 272.200 141.800 272.081 138.818 C 271.929 135.008,271.737 134.800,268.381 134.800 L 265.660 134.800 265.530 129.219 C 265.378 122.699,265.379 122.700,261.799 122.472 L 259.200 122.307 259.159 120.653 C 259.136 119.744,259.131 117.650,259.147 116.000 C 259.197 110.839,258.428 109.739,254.700 109.640 C 253.074 109.597,253.071 109.591,253.191 106.535 C 253.242 105.227,253.100 104.829,252.528 104.681 C 251.854 104.507,251.852 104.489,252.508 104.446 C 253.067 104.410,253.163 104.170,252.968 103.300 C 251.946 98.765,251.533 98.253,248.500 97.769 L 246.800 97.498 246.800 94.592 C 246.800 91.235,246.763 91.200,243.167 91.200 L 240.800 91.200 240.788 89.100 C 240.730 78.510,240.803 78.714,236.999 78.472 L 234.400 78.307 234.354 76.853 C 234.329 76.054,234.344 75.060,234.389 74.644 C 234.817 70.631,232.787 67.027,229.850 66.587 L 228.000 66.309 228.000 63.435 C 228.000 59.893,227.734 59.600,224.520 59.600 C 222.182 59.600,221.998 59.535,221.971 58.700 C 221.955 58.205,221.910 56.900,221.871 55.800 L 221.800 53.800 219.800 53.729 C 218.700 53.690,217.305 53.645,216.700 53.629 C 215.732 53.603,215.600 53.444,215.598 52.300 C 215.593 49.491,214.887 48.062,213.285 47.617 C 211.432 47.102,188.709 47.125,186.917 47.643 M207.774 63.038 C 210.110 63.624,213.200 65.710,213.200 66.700 C 213.200 66.865,214.170 68.035,215.356 69.300 C 216.542 70.564,217.631 72.071,217.776 72.649 C 218.228 74.447,220.399 78.587,221.538 79.821 C 223.501 81.949,224.368 83.458,224.651 85.242 C 224.972 87.269,225.802 89.430,226.400 89.800 C 226.627 89.941,226.713 90.216,226.592 90.413 C 226.470 90.610,227.094 91.228,227.979 91.787 C 229.627 92.827,230.772 94.667,232.220 98.600 C 232.625 99.700,233.562 101.405,234.302 102.389 C 235.042 103.372,236.358 105.652,237.227 107.456 C 238.095 109.259,239.311 111.159,239.928 111.678 C 240.545 112.197,241.392 113.202,241.811 113.911 C 242.230 114.620,242.714 115.200,242.886 115.200 C 243.059 115.200,243.163 115.335,243.119 115.500 C 242.661 117.184,245.141 122.745,247.016 124.240 C 248.361 125.313,250.400 128.783,250.400 130.001 C 250.400 130.588,252.034 132.857,253.603 134.449 C 254.172 135.026,255.154 136.736,255.787 138.249 C 256.419 139.762,257.266 141.478,257.668 142.062 C 258.071 142.646,258.400 143.300,258.400 143.516 C 258.400 143.731,258.810 144.176,259.310 144.504 C 260.301 145.153,262.250 148.748,262.020 149.503 C 261.897 149.910,264.404 154.137,265.961 156.148 C 267.011 157.504,268.269 159.763,268.776 161.200 C 269.281 162.630,269.943 164.085,270.248 164.432 C 270.552 164.780,270.705 165.161,270.587 165.279 C 270.470 165.397,270.997 166.042,271.761 166.712 C 273.417 168.166,274.591 170.373,274.949 172.703 C 275.203 174.358,275.650 175.056,278.244 177.852 C 278.927 178.589,280.158 180.792,280.978 182.748 C 282.002 185.189,283.055 186.928,284.335 188.293 C 285.361 189.386,286.446 190.982,286.746 191.840 C 287.554 194.145,289.157 197.288,289.991 198.200 C 291.120 199.435,292.375 201.877,293.473 204.977 C 294.024 206.530,294.725 207.998,295.031 208.240 C 295.337 208.481,295.494 208.772,295.380 208.886 C 295.266 209.000,295.797 209.642,296.561 210.312 C 298.098 211.661,299.244 213.673,300.029 216.400 C 300.529 218.134,302.647 221.600,303.208 221.600 C 303.479 221.600,306.000 225.456,306.000 225.869 C 306.000 226.681,308.733 231.560,309.767 232.593 C 310.462 233.288,311.266 234.654,311.553 235.629 C 312.335 238.275,313.784 240.984,315.102 242.263 C 316.819 243.928,317.615 245.316,318.696 248.529 C 319.227 250.108,319.945 251.715,320.293 252.100 C 320.640 252.485,320.761 252.801,320.562 252.802 C 320.363 252.804,321.112 253.659,322.227 254.702 C 323.897 256.266,324.453 257.163,325.391 259.800 C 326.016 261.560,327.007 263.630,327.592 264.400 C 329.206 266.523,330.248 268.373,331.198 270.800 C 332.112 273.132,333.392 274.800,334.270 274.800 C 334.561 274.800,334.801 274.935,334.802 275.100 C 334.803 275.265,335.310 275.940,335.929 276.600 C 336.547 277.260,337.079 277.980,337.111 278.200 C 337.579 281.468,339.049 284.983,340.463 286.217 C 341.255 286.907,343.013 290.051,344.512 293.458 C 344.720 293.929,345.658 295.152,346.598 296.175 C 347.687 297.362,348.847 299.328,349.803 301.607 C 350.948 304.338,351.808 305.695,353.451 307.364 C 354.633 308.565,355.600 309.884,355.600 310.294 C 355.600 310.704,355.816 311.256,356.080 311.520 C 356.344 311.784,356.431 312.000,356.274 312.000 C 355.839 312.000,358.321 316.758,359.851 318.857 C 360.596 319.879,361.479 321.499,361.813 322.457 C 362.657 324.879,363.549 326.721,364.017 327.011 C 364.235 327.145,364.321 327.405,364.208 327.587 C 364.095 327.770,364.620 328.462,365.375 329.125 C 366.903 330.466,368.053 332.493,368.822 335.200 C 369.363 337.103,370.555 338.947,372.645 341.117 C 374.291 342.825,374.800 344.971,374.800 350.200 C 374.800 357.039,374.619 357.448,369.418 362.374 C 368.155 363.569,366.853 364.957,366.525 365.458 C 366.197 365.959,364.909 366.781,363.664 367.285 L 361.400 368.200 200.600 368.200 C 21.925 368.200,36.518 368.416,34.225 365.735 C 33.771 365.204,32.339 363.742,31.042 362.485 C 25.853 357.457,25.657 357.011,25.657 350.189 C 25.657 344.944,26.289 342.341,27.927 340.835 C 29.690 339.215,31.020 337.161,31.578 335.200 C 32.347 332.493,33.497 330.466,35.025 329.125 C 35.780 328.462,36.305 327.770,36.192 327.587 C 36.079 327.405,36.170 327.142,36.395 327.003 C 36.864 326.713,38.221 323.851,38.594 322.366 C 38.733 321.812,39.663 320.468,40.662 319.380 C 43.246 316.560,43.448 316.184,44.399 312.400 C 45.157 309.380,45.457 308.803,47.077 307.237 C 48.109 306.241,49.326 304.502,49.878 303.237 C 51.672 299.124,52.833 297.134,54.377 295.528 C 55.819 294.028,56.549 292.789,58.217 289.015 C 58.603 288.143,59.419 286.894,60.031 286.239 C 61.303 284.879,62.869 281.834,63.651 279.203 C 64.011 277.991,64.803 276.816,66.083 275.595 C 67.379 274.359,68.314 272.963,69.033 271.193 C 70.236 268.230,71.930 265.200,72.384 265.200 C 72.899 265.200,74.799 262.209,74.811 261.378 C 74.834 259.782,77.092 255.539,78.565 254.325 C 79.377 253.656,79.942 253.008,79.820 252.886 C 79.698 252.765,79.855 252.380,80.169 252.032 C 80.482 251.685,81.173 250.108,81.704 248.529 C 82.785 245.316,83.581 243.928,85.298 242.263 C 86.610 240.990,88.065 238.277,88.836 235.662 C 89.118 234.707,89.811 233.421,90.375 232.804 C 91.847 231.195,92.192 230.621,94.165 226.511 C 95.138 224.482,96.365 222.412,96.891 221.911 C 98.533 220.346,99.846 218.270,100.378 216.400 C 101.149 213.686,102.298 211.665,103.839 210.312 C 104.603 209.642,105.134 209.000,105.020 208.886 C 104.906 208.772,105.060 208.481,105.363 208.240 C 105.666 207.998,106.496 206.180,107.208 204.200 C 107.920 202.220,109.084 199.880,109.795 199.000 C 110.936 197.587,113.227 193.551,113.201 193.001 C 113.161 192.173,114.615 189.790,116.114 188.225 C 117.348 186.937,118.380 185.233,119.403 182.792 C 120.368 180.491,121.513 178.562,122.645 177.329 C 123.826 176.043,124.603 174.708,125.034 173.224 C 125.942 170.099,127.041 168.116,128.639 166.712 C 129.403 166.042,129.930 165.397,129.813 165.279 C 129.695 165.161,129.848 164.780,130.152 164.432 C 130.457 164.085,131.122 162.646,131.630 161.236 C 132.354 159.227,133.087 158.144,135.018 156.236 C 137.401 153.880,137.512 153.679,138.388 150.092 C 139.060 147.341,139.591 146.066,140.447 145.150 C 141.081 144.471,141.600 143.843,141.600 143.754 C 141.600 143.666,142.140 142.848,142.800 141.937 C 143.460 141.025,144.000 140.077,144.000 139.829 C 144.000 138.855,146.466 134.701,147.978 133.126 C 149.532 131.509,151.200 128.573,151.200 127.455 C 151.200 127.150,151.935 126.113,152.833 125.151 C 155.185 122.629,156.182 120.944,157.438 117.366 C 158.215 115.155,159.004 113.739,160.057 112.671 C 161.586 111.119,162.699 108.675,163.578 104.932 C 163.999 103.141,164.340 102.659,166.122 101.330 C 167.942 99.972,168.347 99.382,169.639 96.209 C 170.844 93.253,171.357 92.461,172.564 91.697 C 173.370 91.187,173.934 90.617,173.819 90.430 C 173.703 90.244,173.877 89.868,174.204 89.596 C 174.532 89.324,174.800 88.825,174.800 88.486 C 174.800 86.193,176.677 82.190,178.862 79.821 C 180.002 78.585,182.172 74.446,182.625 72.644 C 182.770 72.064,183.700 70.737,184.692 69.695 C 185.683 68.653,186.782 67.350,187.133 66.800 C 189.686 62.810,199.642 60.995,207.774 63.038 M179.800 143.668 C 178.437 143.926,177.386 144.447,176.500 145.302 L 175.200 146.557 175.206 174.778 C 175.212 201.591,175.252 203.157,176.006 206.151 C 176.459 207.946,176.800 210.634,176.800 212.400 C 176.800 214.105,177.063 216.245,177.384 217.155 C 177.994 218.884,177.996 218.893,178.006 219.700 C 178.010 220.043,178.128 220.018,178.380 219.619 C 178.582 219.300,178.666 218.907,178.567 218.747 C 178.468 218.586,178.585 218.333,178.828 218.183 C 179.108 218.010,179.269 216.214,179.269 213.255 C 179.271 181.321,179.844 152.097,180.486 151.118 C 181.797 149.118,182.885 149.000,200.000 149.000 C 216.960 149.000,217.803 149.088,219.641 151.043 L 220.600 152.064 220.867 180.332 C 221.013 195.879,221.133 210.695,221.132 213.255 C 221.132 216.215,221.292 218.010,221.572 218.183 C 221.815 218.333,221.932 218.586,221.833 218.747 C 221.734 218.907,221.818 219.300,222.020 219.619 C 222.272 220.018,222.390 220.043,222.394 219.700 C 222.404 218.893,222.406 218.884,223.016 217.155 C 223.337 216.244,223.600 214.092,223.600 212.369 C 223.600 210.648,223.870 208.202,224.200 206.935 C 224.707 204.990,224.800 200.092,224.800 175.391 L 224.800 146.150 223.700 145.107 C 222.960 144.406,221.824 143.924,220.227 143.633 C 217.274 143.094,182.669 143.125,179.800 143.668 M215.238 226.751 C 214.997 227.952,214.799 230.118,214.797 231.567 C 214.795 233.015,214.633 235.640,214.436 237.400 C 214.223 239.303,214.229 244.247,214.451 249.600 C 214.656 254.550,214.803 260.695,214.777 263.255 C 214.748 266.261,214.888 268.007,215.172 268.183 C 215.415 268.333,215.532 268.586,215.433 268.747 C 215.334 268.907,215.418 269.300,215.620 269.619 C 215.872 270.018,215.990 270.043,215.994 269.700 C 216.004 268.893,216.006 268.884,216.616 267.155 C 216.937 266.244,217.200 264.092,217.200 262.369 C 217.200 260.648,217.487 258.195,217.837 256.920 C 219.284 251.654,220.016 228.688,218.817 226.174 C 217.658 223.742,215.782 224.045,215.238 226.751 M184.373 230.560 C 184.251 230.682,183.755 230.842,183.271 230.916 C 180.420 231.351,179.942 252.820,182.555 263.000 C 182.894 264.320,183.178 266.857,183.186 268.638 C 183.196 270.876,183.459 272.605,184.038 274.238 C 184.499 275.537,184.918 277.005,184.969 277.500 C 185.095 278.729,186.672 280.354,188.600 281.244 C 190.764 282.243,209.299 282.383,211.172 281.414 C 215.295 279.282,215.376 274.529,211.304 273.660 C 209.612 273.300,209.402 273.343,208.732 274.196 C 206.804 276.647,194.246 277.352,191.820 275.146 C 191.611 274.956,190.441 274.797,189.220 274.794 C 187.999 274.791,186.740 274.623,186.422 274.422 C 185.699 273.965,185.157 266.730,185.627 263.800 C 186.964 255.456,185.965 228.968,184.373 230.560 M342.225 263.700 L 343.400 265.000 342.100 263.825 C 341.385 263.179,340.800 262.594,340.800 262.525 C 340.800 262.216,341.130 262.488,342.225 263.700 M176.710 287.824 C 174.788 288.867,174.800 288.709,174.800 312.800 C 174.800 337.045,174.777 336.754,176.792 337.796 C 178.335 338.594,221.676 338.713,223.408 337.924 C 225.570 336.938,225.600 336.598,225.600 312.800 C 225.600 289.002,225.570 288.662,223.408 287.676 C 221.701 286.899,178.162 287.036,176.710 287.824 M217.881 293.184 C 220.408 294.725,220.400 294.663,220.399 312.680 C 220.396 335.048,222.654 332.800,200.200 332.800 C 177.746 332.800,180.004 335.048,180.001 312.680 C 180.000 294.663,179.992 294.725,182.519 293.184 C 184.502 291.975,215.898 291.975,217.881 293.184 M13.000 350.162 C 13.000 352.231,12.865 353.840,12.700 353.738 C 12.114 353.376,12.368 346.400,12.967 346.400 C 12.985 346.400,13.000 348.093,13.000 350.162 " stroke="none" fill="#ec8c0c" fill-rule="evenodd"></path><path id="path4" d="M185.600 149.149 C 179.740 149.883,180.003 148.630,180.002 175.800 C 180.002 204.054,180.689 214.431,182.915 219.779 C 183.390 220.920,183.883 223.280,184.047 225.200 C 184.207 227.070,184.720 230.220,185.189 232.200 C 185.904 235.225,186.098 237.813,186.404 248.400 C 187.182 275.344,187.602 276.203,200.000 276.198 C 207.008 276.195,208.447 275.425,210.835 270.400 C 212.553 266.784,214.000 254.303,214.000 243.105 C 214.000 231.722,214.816 225.509,216.871 221.247 C 219.635 215.515,220.391 205.593,220.396 174.959 L 220.400 153.318 219.499 151.981 C 217.506 149.024,217.453 149.015,201.800 148.940 C 194.100 148.904,186.810 148.998,185.600 149.149 M213.195 151.627 C 217.583 152.339,217.200 149.994,217.197 176.162 C 217.193 199.669,216.955 204.527,215.609 208.446 C 213.592 214.323,212.313 224.145,211.605 239.200 C 211.159 248.672,210.365 254.983,209.177 258.502 C 208.750 259.767,208.402 261.117,208.404 261.502 C 208.406 261.886,208.011 264.512,207.527 267.338 C 206.393 273.946,205.915 274.400,200.091 274.400 C 194.212 274.400,192.786 273.445,192.024 269.000 C 191.760 267.460,191.283 265.273,190.964 264.140 C 190.206 261.446,189.345 252.974,188.817 243.000 C 188.584 238.600,188.296 234.414,188.178 233.698 C 188.060 232.982,187.799 229.292,187.599 225.498 C 187.234 218.581,186.299 212.878,184.804 208.446 C 183.067 203.300,182.800 198.898,182.800 175.458 L 182.800 153.339 183.700 152.496 C 184.255 151.976,185.290 151.593,186.400 151.496 C 190.525 151.137,210.785 151.236,213.195 151.627 M182.896 293.198 C 179.964 294.986,180.003 294.726,180.003 312.600 C 180.003 334.860,177.940 332.797,200.200 332.797 C 222.460 332.797,220.397 334.860,220.397 312.600 C 220.397 290.340,222.460 292.403,200.200 292.403 C 184.939 292.403,184.140 292.440,182.896 293.198 M217.074 295.670 L 218.000 296.539 218.000 312.544 C 218.000 328.426,217.993 328.556,217.130 329.474 L 216.261 330.400 200.256 330.400 C 184.374 330.400,184.244 330.393,183.326 329.530 L 182.400 328.661 182.400 312.656 C 182.400 296.774,182.407 296.644,183.270 295.726 L 184.139 294.800 200.144 294.800 C 216.026 294.800,216.156 294.807,217.074 295.670 " stroke="none" fill="#f4bc7c" fill-rule="evenodd"></path></g></svg>